<svg xmlns="http://www.w3.org/2000/svg" xmlns:xlink="http://www.w3.org/1999/xlink" version="1.1" id="Layer_1" x="0px" y="0px" viewBox="0 0 121 139" style="enable-background:new 0 0 121 139;">
 <style type="text/css">
  .st0{fill-rule:evenodd;clip-rule:evenodd;fill:url(#Shape_1_);}
 </style>
 <desc>
  Created with Sketch.
 </desc>
 <g id="Page-1">
  <linearGradient id="Shape_1_" gradientUnits="userSpaceOnUse" x1="-17.9082" y1="95.825" x2="-17.9082" y2="94.0875" gradientTransform="matrix(170.3553 0 0 -80 3111.2563 7666)">
   <stop offset="0" style="stop-color:#ffffff">
   </stop>
   <stop offset="1" style="stop-color:#ffffff">
   </stop>
  </linearGradient>
  <path id="Shape" class="st0" d="M43.8,138.1c-2.3,0.3-6.9,0.9-7.3,0.9H0L24.6,23.4c12.9,25.2,25.8,50.7,38.5,76.2&#10;  c2.2,5.6,4.2,11.6,4.2,17.3C67.4,129.6,58.4,135.8,43.8,138.1L43.8,138.1z M96.2,115.6C88.8,101.1,81.3,86.4,74,71.9&#10;  c-4.1-8.1-8.2-16.4-12.3-24.3c-1.3-2.8-2.8-5.3-4-7.9c-1.3-2.9-4.2-11.9-4.2-16.1v-3.1c0.1-1.5,0.3-3.2,0.7-4.5&#10;  C58.6,2.1,74.8,0.7,84.5,0L121,0L96.2,115.6z">
  </path>
 </g>
</svg>